<svg width="180" height="194" viewBox="0 0 180 194" fill="none" xmlns="http://www.w3.org/2000/svg">
<path fill-rule="evenodd" clip-rule="evenodd" d="M57.8613 17C57.8613 7.61116 65.4725 0 74.8613 0H133.882H158.903H158.903C168.292 0 175.903 7.61116 175.903 17V106.407C175.903 115.796 168.292 123.407 158.903 123.407H127.255L176.346 172.457C182.634 178.739 178.213 189.489 169.324 189.531L106.071 189.826C103.398 189.838 100.831 188.78 98.9437 186.888L67.8583 155.72V177C67.8583 186.389 60.2471 194 50.8583 194H17C7.61116 194 0 186.389 0 177V142.195C0 132.806 7.61116 125.195 17 125.195H37.4133L3.36724 91.059C1.51607 89.2029 0.467719 86.6942 0.447898 84.0728L0.117722 40.4076L0.281631 20.5853C0.354951 11.7183 11.0767 7.32649 17.3494 13.5939L58.0864 54.2967C57.939 53.6136 57.8613 52.9044 57.8613 52.1771V17ZM65.7499 61.9538L116.882 113.043V72.1771C116.882 66.6543 112.405 62.1771 106.882 62.1771H67.8613C67.137 62.1771 66.4306 62.1001 65.7499 61.9538Z" fill="url(#paint0_linear_37_2)"/>
<defs>
<linearGradient id="paint0_linear_37_2" x1="-20.5908" y1="16.4638" x2="189.551" y2="217.202" gradientUnits="userSpaceOnUse">
<stop offset="0.0949188" stop-color="#3B82F6"/>
<stop offset="0.435916" stop-color="#BB91F9"/>
<stop offset="0.815894" stop-color="#4F46E5"/>
</linearGradient>
</defs>
</svg>
